HIERARCHY
ROOT hip
{
  OFFSET 0 0 0
  CHANNELS 6 Xposition Yposition Zposition Zrotation Yrotation Xrotation
  JOINT abdomen
  {
    OFFSET 0 20.6881 -0.73152
    CHANNELS 3 Zrotation Xrotation Yrotation
    JOINT chest
    {
      OFFSET 0 11.7043 -0.48768
      CHANNELS 3 Zrotation Xrotation Yrotation
      JOINT neck
      {
        OFFSET 0 22.1894 -2.19456
        CHANNELS 3 Zrotation Xrotation Yrotation
        JOINT head
        {
          OFFSET -0.24384 7.07133 1.2192
          CHANNELS 3 Zrotation Xrotation Yrotation
          JOINT leftEye
          {
            OFFSET 4.14528 8.04674 8.04672
            CHANNELS 3 Zrotation Xrotation Yrotation
            End Site
            {
              OFFSET 1 0 0
            }
          }
          JOINT rightEye
          {
            OFFSET -3.6576 8.04674 8.04672
            CHANNELS 3 Zrotation Xrotation Yrotation
            End Site
            {
              OFFSET 1 0 0
            }
          }
        }
      }
      JOINT rCollar
      {
        OFFSET -2.68224 19.2634 -4.8768
        CHANNELS 3 Zrotation Xrotation Yrotation
        JOINT rShldr
        {
          OFFSET -8.77824 -1.95073 1.46304
          CHANNELS 3 Zrotation Xrotation Yrotation
          JOINT rForeArm
          {
            OFFSET -28.1742 -1.7115 0.48768
            CHANNELS 3 Zrotation Xrotation Yrotation
            JOINT rHand
            {
              OFFSET -22.5879 0.773209 7.07136
              CHANNELS 3 Zrotation Xrotation Yrotation
              JOINT rThumb1
              {
                OFFSET -1.2192 -0.487915 3.41376
                CHANNELS 3 Zrotation Xrotation Yrotation
                JOINT rThumb2
                {
                  OFFSET -3.37035 -0.52449 3.41376
                  CHANNELS 3 Zrotation Xrotation Yrotation
                  End Site
                  {
                    OFFSET -1.78271 -1.18214 1.43049
                  }
                }
              }
              JOINT rIndex1
              {
                OFFSET -7.75947 0.938293 5.60832
                CHANNELS 3 Zrotation Xrotation Yrotation
                JOINT rIndex2
                {
                  OFFSET -2.54057 -0.884171 1.56538
                  CHANNELS 3 Zrotation Xrotation Yrotation
                  End Site
                  {
                    OFFSET -1.62519 -0.234802 1.16502
                  }
                }
              }
              JOINT rMid1
              {
                OFFSET -8.24714 1.18213 3.41376
                CHANNELS 3 Zrotation Xrotation Yrotation
                JOINT rMid2
                {
                  OFFSET -3.10165 -0.590103 1.0647
                  CHANNELS 3 Zrotation Xrotation Yrotation
                  End Site
                  {
                    OFFSET -2.48547 -0.328903 0.83742
                  }
                }
              }
              JOINT rRing1
              {
                OFFSET -8.82822 0.546677 1.51678
                CHANNELS 3 Zrotation Xrotation Yrotation
                JOINT rRing2
                {
                  OFFSET -2.60934 -0.819778 -0.0198488
                  CHANNELS 3 Zrotation Xrotation Yrotation
                  End Site
                  {
                    OFFSET -2.33842 -0.294052 0.168128
                  }
                }
              }
              JOINT rPinky1
              {
                OFFSET -8.27202 -0.0477905 -0.4584
                CHANNELS 3 Zrotation Xrotation Yrotation
                JOINT rPinky2
                {
                  OFFSET -1.82734 -0.647385 -0.700984
                  CHANNELS 3 Zrotation Xrotation Yrotation
                  End Site
                  {
                    OFFSET -1.69225 -0.51767 -0.607171
                  }
                }
              }
            }
          }
        }
      }
      JOINT lCollar
      {
        OFFSET 2.68224 19.2634 -4.8768
        CHANNELS 3 Zrotation Xrotation Yrotation
        JOINT lShldr
        {
          OFFSET 8.77824 -1.95073 1.46304
          CHANNELS 3 Zrotation Xrotation Yrotation
          JOINT lForeArm
          {
            OFFSET 28.1742 -1.7115 0.48768
            CHANNELS 3 Zrotation Xrotation Yrotation
            JOINT lHand
            {
              OFFSET 22.5879 0.773209 7.07136
              CHANNELS 3 Zrotation Xrotation Yrotation
              JOINT lThumb1
              {
                OFFSET 1.2192 -0.487915 3.41376
                CHANNELS 3 Zrotation Xrotation Yrotation
                JOINT lThumb2
                {
                  OFFSET 3.37035 -0.52449 3.41376
                  CHANNELS 3 Zrotation Xrotation Yrotation
                  End Site
                  {
                    OFFSET 1.78271 -1.18214 1.43049
                  }
                }
              }
              JOINT lIndex1
              {
                OFFSET 7.75947 0.938293 5.60832
                CHANNELS 3 Zrotation Xrotation Yrotation
                JOINT lIndex2
                {
                  OFFSET 2.54057 -0.884171 1.56538
                  CHANNELS 3 Zrotation Xrotation Yrotation
                  End Site
                  {
                    OFFSET 1.62519 -0.234802 1.16502
                  }
                }
              }
              JOINT lMid1
              {
                OFFSET 8.24714 1.18213 3.41376
                CHANNELS 3 Zrotation Xrotation Yrotation
                JOINT lMid2
                {
                  OFFSET 3.10165 -0.590103 1.0647
                  CHANNELS 3 Zrotation Xrotation Yrotation
                  End Site
                  {
                    OFFSET 2.48547 -0.328903 0.83742
                  }
                }
              }
              JOINT lRing1
              {
                OFFSET 8.82822 0.546677 1.51678
                CHANNELS 3 Zrotation Xrotation Yrotation
                JOINT lRing2
                {
                  OFFSET 2.60934 -0.819778 -0.0198488
                  CHANNELS 3 Zrotation Xrotation Yrotation
                  End Site
                  {
                    OFFSET 2.33842 -0.294052 0.168128
                  }
                }
              }
              JOINT lPinky1
              {
                OFFSET 8.27202 -0.0477905 -0.4584
                CHANNELS 3 Zrotation Xrotation Yrotation
                JOINT lPinky2
                {
                  OFFSET 1.82734 -0.647385 -0.700984
                  CHANNELS 3 Zrotation Xrotation Yrotation
                  End Site
                  {
                    OFFSET 1.69225 -0.51767 -0.607171
                  }
                }
              }
            }
          }
        }
      }
    }
  }
  JOINT rButtock
  {
    OFFSET -8.77824 4.35084 1.2192
    CHANNELS 3 Zrotation Xrotation Yrotation
    JOINT rThigh
    {
      OFFSET 0 -1.70687 -2.19456
      CHANNELS 3 Zrotation Xrotation Yrotation
      JOINT rShin
      {
        OFFSET 0 -36.8199 0.73152
        CHANNELS 3 Zrotation Xrotation Yrotation
        JOINT rFoot
        {
          OFFSET 0.73152 -45.1104 -5.12064
          CHANNELS 3 Zrotation Xrotation Yrotation
          End Site
          {
            OFFSET -1.1221 -3.69964 12.103
          }
        }
      }
    }
  }
  JOINT lButtock
  {
    OFFSET 8.77824 4.35084 1.2192
    CHANNELS 3 Zrotation Xrotation Yrotation
    JOINT lThigh
    {
      OFFSET 0 -1.70687 -2.19456
      CHANNELS 3 Zrotation Xrotation Yrotation
      JOINT lShin
      {
        OFFSET 0 -36.8199 0.73152
        CHANNELS 3 Zrotation Xrotation Yrotation
        JOINT lFoot
        {
          OFFSET -0.73152 -45.1104 -5.12064
          CHANNELS 3 Zrotation Xrotation Yrotation
          End Site
          {
            OFFSET 1.1221 -3.69964 12.103
          }
        }
      }
    }
  }
}
MOTION
Frames:	6
Frame Time:	0.00833333
-143.672 84.8928 18.7568 0.0 0.0 0.0 -0.180148 -0.000587413 -0.00513801 -0.0496824 -0.000860792 -0.00860672 3.08055e-15 0.0 -3.10601e-17 9.21553e-15 3.18055e-15 -1.04051e-16 -0.0 0.0 0.0 -0.0 0.0 0.0 1.589e-15 -1.16475e-18 1.49089e-16 3.37783e-14 -2.04997e-16 5.96354e-16 5.60722e-13 -1.64395e-13 -1.59028e-14 6.37886e-12 1.74881e-13 -5.40694e-14 1.50514e-11 2.42255e-14 -1.33583e-13 2.59915e-11 4.45278e-14 -2.19458e-13 1.50556e-11 2.10712e-14 -1.33583e-13 7.73091 5.47488 0.417314 1.50515e-11 2.39536e-14 -1.27222e-13 2.90554 0.965183 0.102902 1.50537e-11 2.41523e-14 -1.26427e-13 10.2786 0.731801 0.0259123 1.50482e-11 2.46493e-14 -1.08139e-13 2.22167 -0.733487 -0.20892 1.49226e-15 -7.76503e-19 -1.49089e-16 3.0246e-14 -4.09993e-16 -9.93923e-16 5.55156e-13 1.66979e-13 -9.54166e-15 6.38158e-12 -1.65985e-13 -3.49861e-14 1.50503e-11 5.31787e-15 -1.20861e-13 2.59998e-11 1.27222e-14 -2.07531e-13 1.50484e-11 4.77083e-15 -1.11319e-13 -7.73091 5.47488 -0.417314 1.50512e-11 5.1684e-15 -1.24042e-13 -2.90554 0.965183 -0.102902 1.50442e-11 5.66536e-15 -1.21656e-13 -10.2786 0.731801 -0.0259123 1.50625e-11 1.03368e-14 -1.27222e-13 -2.22167 -0.733487 0.20892 -2.03217e-16 0.0 -3.88251e-19 0.37357 -2.84391 -0.0347139 -0.00664985 -0.401536 -0.0584295 -0.509721 3.24465 0.124536 2.03217e-16 0.0 3.88251e-19 -0.647769 -3.54407 0.0518672 0.00461055 0.866744 0.0396095 0.511837 2.67656 -0.113178
-144.529 82.957 11.7995 -178.736 1.778 -166.241 -0.792773 -5.32487 -0.358456 0.665231 0.69242 0.0272189 -2.56518 9.38384 0.195709 7.46253 -17.8998 4.57382 -0.0 0.0 0.0 -0.0 0.0 0.0 -7.50246e-15 -1.57513e-14 -9.35724e-15 24.0004 3.53292 0.214559 -2.11504 -0.742827 3.50248 0.141145 8.35107 1.12916 1.50388e-11 -1.36662e-10 2.52921e-10 3.21017e-11 -2.39458e-10 4.36002e-10 1.5043e-11 -1.36663e-10 2.52918e-10 7.73091 5.47488 0.417314 1.504e-11 -1.36664e-10 2.52928e-10 2.90554 0.965183 0.102902 1.50398e-11 -1.36662e-10 2.52927e-10 10.2786 0.731801 0.0259123 1.5034e-11 -1.36661e-10 2.52943e-10 2.22167 -0.733487 -0.20892 -7.60257e-15 -1.57513e-14 -9.65775e-15 -24.0094 -1.88471 0.106374 1.96045 -0.671302 -3.25773 -0.549437 16.5759 -1.99264 9.86226e-11 1.70415e-10 2.10226e-10 1.79762e-10 2.96005e-10 3.57476e-10 9.86192e-11 1.70413e-10 2.10235e-10 -7.73091 5.47488 -0.417314 9.86216e-11 1.70409e-10 2.10222e-10 -2.90554 0.965183 -0.102902 9.86164e-11 1.70412e-10 2.10226e-10 -10.2786 0.731801 -0.0259123 9.86341e-11 1.70416e-10 2.10221e-10 -2.22167 -0.733487 0.20892 -2.03217e-16 0.0 -3.88251e-19 0.329643 -8.59257 2.68702 -0.0078371 5.91959 0.0271243 -0.769069 2.41134 -5.72952 2.03217e-16 0.0 3.88251e-19 0.115337 -9.93177 -3.14485 -0.0116054 8.21261 -0.0965534 0.676863 -2.79998 1.42761
-144.528 82.9573 11.7944 -178.727 1.7073 -166.263 -1.50937 -10.9511 -0.745931 1.41975 1.42368 0.0639229 -5.36079 19.3148 0.422274 19.1157 -36.4351 11.1452 -0.0 0.0 0.0 -0.0 0.0 0.0 -1.78764e-14 -2.9147e-14 -2.0099e-14 49.339 7.28939 0.443985 -4.25319 -1.51924 7.20835 -0.0825462 17.1549 2.40358 6.15048e-11 -3.08343e-10 5.19816e-10 1.18761e-10 -5.38986e-10 8.94915e-10 6.1509e-11 -3.08342e-10 5.1981e-10 7.73091 5.47488 0.417314 6.15072e-11 -3.08348e-10 5.19824e-10 2.90554 0.965183 0.102902 6.15043e-11 -3.08343e-10 5.1982e-10 10.2786 0.731801 0.0259123 6.14982e-11 -3.08342e-10 5.19834e-10 2.22167 -0.733487 -0.20892 -1.79805e-14 -2.91475e-14 -2.04034e-14 -49.3879 -3.89487 0.220955 3.94951 -1.37364 -6.70211 0.357989 34.0394 -4.74383 1.46298e-10 3.4123e-10 4.50281e-10 2.7333e-10 5.9451e-10 7.67896e-10 1.46293e-10 3.41225e-10 4.50289e-10 -7.73091 5.47488 -0.417314 1.46295e-10 3.41217e-10 4.50276e-10 -2.90554 0.965183 -0.102902 1.46292e-10 3.41222e-10 4.50284e-10 -10.2786 0.731801 -0.0259123 1.46309e-10 3.41226e-10 4.50277e-10 -2.22167 -0.733487 0.20892 -2.03217e-16 0.0 -3.88251e-19 0.893285 -14.6204 5.68537 -0.0300836 12.6025 0.120033 -1.22554 1.52992 -11.9112 2.03217e-16 0.0 3.88251e-19 0.115446 -16.6069 -6.7081 0.0104688 15.9779 -0.248106 1.17444 -8.57826 3.08767
-144.517 82.9595 11.78 -178.679 1.7083 -166.328 -2.22176 -15.9709 -1.10303 2.09245 2.07898 0.0989292 -7.90979 28.1501 0.656984 35.3509 -51.8785 21.4651 -0.0 0.0 0.0 -0.0 0.0 0.0 -2.56854e-14 -4.72515e-14 -2.83699e-14 71.9206 10.5982 0.653605 -6.07418 -2.1952 10.5144 -0.650214 25.0122 3.69885 1.50137e-11 -4.10033e-10 7.5903e-10 4.43221e-11 -7.18463e-10 1.30844e-09 1.50179e-11 -4.1003e-10 7.59022e-10 7.73091 5.47488 0.417314 1.50171e-11 -4.1004e-10 7.5904e-10 2.90554 0.965183 0.102902 1.5012e-11 -4.10033e-10 7.59033e-10 10.2786 0.731801 0.0259123 1.50056e-11 -4.10031e-10 7.59046e-10 2.22167 -0.733487 -0.20892 -2.57922e-14 -4.72523e-14 -2.86751e-14 -72.007 -5.65405 0.32051 5.65347 -1.98788 -9.77845 3.37261 49.4191 -8.82764 2.65767e-10 5.11235e-10 6.30919e-10 4.87286e-10 8.87989e-10 1.07284e-09 2.65761e-10 5.11229e-10 6.30926e-10 -7.73091 5.47488 -0.417314 2.65762e-10 5.11217e-10 6.30913e-10 -2.90554 0.965183 -0.102902 2.65761e-10 5.11224e-10 6.30923e-10 -10.2786 0.731801 -0.0259123 2.65777e-10 5.11227e-10 6.30916e-10 -2.22167 -0.733487 0.20892 -2.03217e-16 0.0 -3.88251e-19 1.96589 -19.9117 8.55476 -0.069057 18.5617 0.208649 -1.79362 0.745142 -17.4235 2.03217e-16 0.0 3.88251e-19 -0.640008 -22.4292 -10.1734 0.0679808 22.9039 -0.397217 1.90951 -13.7124 4.63625
-144.51 82.956 11.7991 -178.644 1.7009 -166.242 -2.77417 -19.4771 -1.34733 2.56232 2.54441 0.129639 -9.68121 34.2479 0.844905 53.315 -61.0413 34.5864 -0.0 0.0 0.0 -0.0 0.0 0.0 -2.70817e-14 -7.71281e-14 -3.04638e-14 87.668 12.7882 0.803986 -7.29316 -2.65181 12.8142 -1.29929 30.5411 4.75647 -2.6387e-10 -3.36744e-10 9.29043e-10 -4.32862e-10 -5.97814e-10 1.60852e-09 -2.63866e-10 -3.3674e-10 9.29034e-10 7.73091 5.47488 0.417314 -2.63866e-10 -3.36752e-10 9.29053e-10 2.90554 0.965183 0.102902 -2.63872e-10 -3.36744e-10 9.29046e-10 10.2786 0.731801 0.0259123 -2.63879e-10 -3.36742e-10 9.29056e-10 2.22167 -0.733487 -0.20892 -2.71883e-14 -7.71288e-14 -3.07619e-14 -87.7432 -6.78588 0.38107 6.80487 -2.40661 -11.9297 8.08059 59.8378 -13.9952 5.6472e-10 6.79217e-10 6.63012e-10 1.00222e-09 1.1689e-09 1.1141e-09 5.64713e-10 6.7921e-10 6.63018e-10 -7.73091 5.47488 -0.417314 5.64715e-10 6.79197e-10 6.63006e-10 -2.90554 0.965183 -0.102902 5.64714e-10 6.79204e-10 6.63016e-10 -10.2786 0.731801 -0.0259123 5.6473e-10 6.79207e-10 6.63009e-10 -2.22167 -0.733487 0.20892 -2.03217e-16 0.0 -3.88251e-19 3.06643 -23.5268 10.7173 -0.107706 22.712 0.276089 -2.29214 0.178465 -21.2687 2.03217e-16 0.0 3.88251e-19 -1.62608 -26.3763 -12.82 0.132567 27.7319 -0.513288 2.59447 -17.2766 5.77484
-144.509 82.9568 11.7884 -178.634 1.7374 -166.249 -3.02553 -20.8724 -1.39677 2.74815 2.75316 0.156488 -10.2384 36.5143 0.906052 62.5809 -63.7675 41.7781 -0.0 0.0 0.0 -0.0 0.0 0.0 -1.69729e-14 -1.38944e-13 -2.14369e-14 93.8818 13.3479 0.869788 -7.74714 -2.82071 13.6911 -1.6426 32.8968 5.25479 -1.02128e-09 6.97387e-11 1.00674e-09 -1.7381e-09 9.33478e-11 1.76138e-09 -1.02128e-09 6.9743e-11 1.00673e-09 7.73091 5.47488 0.417314 -1.02128e-09 6.97328e-11 1.00674e-09 2.90554 0.965183 0.102902 -1.02128e-09 6.97393e-11 1.00674e-09 10.2786 0.731801 0.0259123 -1.02129e-09 6.97412e-11 1.00675e-09 2.22167 -0.733487 -0.20892 -1.70771e-14 -1.38944e-13 -2.17149e-14 -93.8448 -7.00772 0.377539 7.2539 -2.56862 -12.7844 10.989 63.6645 -17.0136 1.24825e-09 8.77791e-10 4.34136e-10 2.16481e-09 1.48441e-09 6.88948e-10 1.24824e-09 8.77784e-10 4.34141e-10 -7.73091 5.47488 -0.417314 1.24825e-09 8.77772e-10 4.34131e-10 -2.90554 0.965183 -0.102902 1.24825e-09 8.77779e-10 4.34139e-10 -10.2786 0.731801 -0.0259123 1.24826e-09 8.77781e-10 4.34131e-10 -2.22167 -0.733487 0.20892 -2.03217e-16 0.0 -3.88251e-19 3.60436 -24.9192 11.6295 -0.124818 24.3298 0.305761 -2.54923 -0.134809 -22.7791 2.03217e-16 0.0 3.88251e-19 -2.10232 -27.8906 -13.9198 0.16452 29.6231 -0.561391 2.9032 -18.6723 6.2359
